<svg width="183" height="46" viewBox="0 0 183 46" fill="none" xmlns="http://www.w3.org/2000/svg">
<path d="M93.0597 32.3585C94.4392 29.6467 93.5706 26.3316 91.0385 24.6447L55.559 1.00799C52.569 -0.983958 48.5105 0.0805509 46.8832 3.28361L29.8788 36.7526C28.0262 40.399 30.6754 44.7165 34.7654 44.7165C36.8923 44.7165 38.8272 43.4861 39.7293 41.5599L50.3304 18.9215C51.8516 15.6732 55.8642 14.4764 58.9162 16.3607L78.8976 28.6973C81.466 30.2831 82.4115 33.5593 81.0828 36.2697L80.0724 38.3306C78.6282 41.2767 80.7728 44.7165 84.0539 44.7165C85.7223 44.7165 87.2495 43.78 88.006 42.2929L93.0597 32.3585Z" fill="#44923B"/>
<path d="M50.1266 15.6781C49.2988 12.3305 45.8262 10.3679 42.5314 11.3856L4.23011 23.2162C1.28637 24.1254 -0.490265 27.1165 0.119546 30.1365L2.69341 42.8832C2.90874 43.9497 3.84592 44.7165 4.93387 44.7165C6.3783 44.7165 7.46057 43.3934 7.17418 41.9776L5.47976 33.6014C4.86849 30.5797 6.64674 27.5864 9.59283 26.6781L39.3493 17.5035C42.6426 16.4882 46.1124 18.4493 46.9411 21.7944L52.1914 42.988C52.4429 44.0034 53.3543 44.7165 54.4003 44.7165C55.8784 44.7165 56.9643 43.3294 56.6095 41.8945L50.1266 15.6781Z" fill="black"/>
<path d="M23.0056 34.8504C23.4998 31.4958 26.6736 29.2169 30.0102 29.8209L37.9555 31.2591C41.0936 31.8271 43.2391 34.7508 42.8395 37.9148L42.6434 39.4682C42.2646 42.4675 39.7137 44.7165 36.6906 44.7165H28.5008C24.8389 44.7165 22.0311 41.4648 22.5648 37.8421L23.0056 34.8504Z" fill="#FFE100"/>
<path d="M108.432 29.592C108.379 30.0933 108.229 30.4773 107.984 30.744C107.749 31.0107 107.403 31.144 106.944 31.144C106.603 31.144 106.299 31.064 106.032 30.904C105.765 30.7333 105.477 30.4507 105.168 30.056L103.584 28.072V30.984C103.467 31.0053 103.291 31.032 103.056 31.064C102.832 31.1067 102.603 31.128 102.368 31.128C102.133 31.128 101.92 31.112 101.728 31.08C101.547 31.048 101.392 30.984 101.264 30.888C101.136 30.792 101.035 30.664 100.96 30.504C100.896 30.3333 100.864 30.1147 100.864 29.848V20.584C100.981 20.552 101.152 20.52 101.376 20.488C101.611 20.4453 101.845 20.424 102.08 20.424C102.315 20.424 102.523 20.44 102.704 20.472C102.896 20.504 103.056 20.568 103.184 20.664C103.312 20.76 103.408 20.8933 103.472 21.064C103.547 21.224 103.584 21.4373 103.584 21.704V25.928L106.336 23.112C106.891 23.112 107.333 23.2347 107.664 23.48C108.005 23.7253 108.176 24.0347 108.176 24.408C108.176 24.568 108.149 24.7173 108.096 24.856C108.043 24.984 107.957 25.1173 107.84 25.256C107.733 25.3947 107.589 25.544 107.408 25.704C107.237 25.8533 107.035 26.0293 106.8 26.232L105.872 27.032L108.432 29.592Z" fill="black"/>
<path d="M113.066 29.272C113.248 29.272 113.445 29.256 113.658 29.224C113.882 29.1813 114.048 29.128 114.154 29.064V27.784L113.002 27.88C112.704 27.9013 112.458 27.9653 112.266 28.072C112.074 28.1787 111.978 28.3387 111.978 28.552C111.978 28.7653 112.058 28.9413 112.218 29.08C112.389 29.208 112.672 29.272 113.066 29.272ZM112.938 22.984C113.514 22.984 114.037 23.0427 114.506 23.16C114.986 23.2773 115.392 23.4587 115.722 23.704C116.064 23.9387 116.325 24.2427 116.506 24.616C116.688 24.9787 116.778 25.4107 116.778 25.912V29.496C116.778 29.7733 116.698 30.0027 116.538 30.184C116.389 30.3547 116.208 30.504 115.994 30.632C115.301 31.048 114.325 31.256 113.066 31.256C112.501 31.256 111.989 31.2027 111.53 31.096C111.082 30.9893 110.693 30.8293 110.362 30.616C110.042 30.4027 109.792 30.1307 109.61 29.8C109.44 29.4693 109.354 29.0853 109.354 28.648C109.354 27.912 109.573 27.3467 110.01 26.952C110.448 26.5573 111.125 26.312 112.042 26.216L114.138 25.992V25.88C114.138 25.5707 114 25.352 113.722 25.224C113.456 25.0853 113.066 25.016 112.554 25.016C112.149 25.016 111.754 25.0587 111.37 25.144C110.986 25.2293 110.64 25.336 110.33 25.464C110.192 25.368 110.074 25.224 109.978 25.032C109.882 24.8293 109.834 24.6213 109.834 24.408C109.834 24.1307 109.898 23.912 110.026 23.752C110.165 23.5813 110.373 23.4373 110.65 23.32C110.96 23.2027 111.322 23.1173 111.738 23.064C112.165 23.0107 112.565 22.984 112.938 22.984Z" fill="black"/>
<path d="M121.161 30.984C121.055 31.016 120.884 31.048 120.649 31.08C120.425 31.112 120.191 31.128 119.945 31.128C119.711 31.128 119.497 31.112 119.305 31.08C119.124 31.048 118.969 30.984 118.841 30.888C118.713 30.792 118.612 30.664 118.537 30.504C118.473 30.3333 118.441 30.1147 118.441 29.848V25.048C118.441 24.8027 118.484 24.5947 118.569 24.424C118.665 24.2427 118.799 24.0827 118.969 23.944C119.14 23.8053 119.348 23.6827 119.593 23.576C119.849 23.4587 120.121 23.3573 120.409 23.272C120.697 23.1867 120.996 23.1227 121.305 23.08C121.615 23.0267 121.924 23 122.233 23C122.745 23 123.151 23.1013 123.449 23.304C123.748 23.496 123.897 23.816 123.897 24.264C123.897 24.4133 123.876 24.5627 123.833 24.712C123.791 24.8507 123.737 24.9787 123.673 25.096C123.449 25.096 123.22 25.1067 122.985 25.128C122.751 25.1493 122.521 25.1813 122.297 25.224C122.073 25.2667 121.86 25.3147 121.657 25.368C121.465 25.4107 121.3 25.464 121.161 25.528V30.984Z" fill="black"/>
<path d="M124.955 21.064C124.955 20.6587 125.089 20.3173 125.355 20.04C125.633 19.7627 125.995 19.624 126.443 19.624C126.891 19.624 127.249 19.7627 127.516 20.04C127.793 20.3173 127.932 20.6587 127.932 21.064C127.932 21.4693 127.793 21.8107 127.516 22.088C127.249 22.3653 126.891 22.504 126.443 22.504C125.995 22.504 125.633 22.3653 125.355 22.088C125.089 21.8107 124.955 21.4693 124.955 21.064ZM127.803 30.984C127.686 31.0053 127.51 31.032 127.275 31.064C127.051 31.1067 126.822 31.128 126.588 31.128C126.353 31.128 126.14 31.112 125.948 31.08C125.766 31.048 125.611 30.984 125.483 30.888C125.355 30.792 125.254 30.664 125.179 30.504C125.115 30.3333 125.084 30.1147 125.084 29.848V23.336C125.201 23.3147 125.371 23.288 125.595 23.256C125.83 23.2133 126.065 23.192 126.299 23.192C126.534 23.192 126.742 23.208 126.924 23.24C127.116 23.272 127.276 23.336 127.404 23.432C127.532 23.528 127.627 23.6613 127.691 23.832C127.766 23.992 127.803 24.2053 127.803 24.472V30.984Z" fill="black"/>
<path d="M133.647 31.256C133.018 31.256 132.431 31.1707 131.887 31C131.354 30.8187 130.884 30.552 130.479 30.2C130.084 29.848 129.77 29.4053 129.535 28.872C129.311 28.3387 129.199 27.7147 129.199 27C129.199 26.296 129.311 25.6933 129.535 25.192C129.77 24.68 130.074 24.264 130.447 23.944C130.82 23.6133 131.247 23.3733 131.727 23.224C132.207 23.064 132.698 22.984 133.199 22.984C133.764 22.984 134.276 23.0693 134.735 23.24C135.204 23.4107 135.604 23.6453 135.935 23.944C136.276 24.2427 136.538 24.6 136.719 25.016C136.911 25.432 137.007 25.8853 137.007 26.376C137.007 26.7387 136.906 27.016 136.703 27.208C136.5 27.4 136.218 27.5227 135.855 27.576L131.903 28.168C132.02 28.52 132.26 28.7867 132.623 28.968C132.986 29.1387 133.402 29.224 133.871 29.224C134.308 29.224 134.719 29.1707 135.103 29.064C135.498 28.9467 135.818 28.8133 136.063 28.664C136.234 28.7707 136.378 28.92 136.495 29.112C136.612 29.304 136.671 29.5067 136.671 29.72C136.671 30.2 136.447 30.5573 135.999 30.792C135.658 30.9733 135.274 31.096 134.847 31.16C134.42 31.224 134.02 31.256 133.647 31.256ZM133.199 24.968C132.943 24.968 132.719 25.0107 132.527 25.096C132.346 25.1813 132.196 25.2933 132.079 25.432C131.962 25.56 131.871 25.7093 131.807 25.88C131.754 26.04 131.722 26.2053 131.711 26.376L134.447 25.928C134.415 25.7147 134.298 25.5013 134.095 25.288C133.892 25.0747 133.594 24.968 133.199 24.968ZM133.487 19.096C134.042 19.096 134.442 19.2027 134.687 19.416C134.943 19.6293 135.071 19.8853 135.071 20.184C135.071 20.4613 134.996 20.696 134.847 20.888C134.698 21.0693 134.452 21.2507 134.111 21.432L132.047 22.52C131.727 22.488 131.455 22.36 131.231 22.136C131.007 21.912 130.895 21.672 130.895 21.416C130.895 21.288 130.927 21.16 130.991 21.032C131.055 20.904 131.162 20.7867 131.311 20.68L133.487 19.096Z" fill="black"/>
<path d="M141.052 30.984C140.945 31.016 140.775 31.048 140.54 31.08C140.316 31.112 140.081 31.128 139.836 31.128C139.601 31.128 139.388 31.112 139.196 31.08C139.015 31.048 138.86 30.984 138.732 30.888C138.604 30.792 138.503 30.664 138.428 30.504C138.364 30.3333 138.332 30.1147 138.332 29.848V25.048C138.332 24.8027 138.375 24.5947 138.46 24.424C138.556 24.2427 138.689 24.0827 138.86 23.944C139.031 23.8053 139.239 23.6827 139.484 23.576C139.74 23.4587 140.012 23.3573 140.3 23.272C140.588 23.1867 140.887 23.1227 141.196 23.08C141.505 23.0267 141.815 23 142.124 23C142.636 23 143.041 23.1013 143.34 23.304C143.639 23.496 143.788 23.816 143.788 24.264C143.788 24.4133 143.767 24.5627 143.724 24.712C143.681 24.8507 143.628 24.9787 143.564 25.096C143.34 25.096 143.111 25.1067 142.876 25.128C142.641 25.1493 142.412 25.1813 142.188 25.224C141.964 25.2667 141.751 25.3147 141.548 25.368C141.356 25.4107 141.191 25.464 141.052 25.528V30.984Z" fill="black"/>
<path d="M152.51 29.592C152.457 30.0933 152.307 30.4773 152.062 30.744C151.827 31.0107 151.481 31.144 151.022 31.144C150.681 31.144 150.377 31.064 150.11 30.904C149.843 30.7333 149.555 30.4507 149.246 30.056L147.662 28.072V30.984C147.545 31.0053 147.369 31.032 147.134 31.064C146.91 31.1067 146.681 31.128 146.446 31.128C146.211 31.128 145.998 31.112 145.806 31.08C145.625 31.048 145.47 30.984 145.342 30.888C145.214 30.792 145.113 30.664 145.038 30.504C144.974 30.3333 144.942 30.1147 144.942 29.848V20.584C145.059 20.552 145.23 20.52 145.454 20.488C145.689 20.4453 145.923 20.424 146.158 20.424C146.393 20.424 146.601 20.44 146.782 20.472C146.974 20.504 147.134 20.568 147.262 20.664C147.39 20.76 147.486 20.8933 147.55 21.064C147.625 21.224 147.662 21.4373 147.662 21.704V25.928L150.414 23.112C150.969 23.112 151.411 23.2347 151.742 23.48C152.083 23.7253 152.254 24.0347 152.254 24.408C152.254 24.568 152.227 24.7173 152.174 24.856C152.121 24.984 152.035 25.1173 151.918 25.256C151.811 25.3947 151.667 25.544 151.486 25.704C151.315 25.8533 151.113 26.0293 150.878 26.232L149.95 27.032L152.51 29.592Z" fill="black"/>
<path d="M161.474 27.112C161.474 27.7733 161.372 28.3653 161.17 28.888C160.967 29.4 160.679 29.832 160.306 30.184C159.943 30.536 159.506 30.8027 158.994 30.984C158.482 31.1653 157.911 31.256 157.282 31.256C156.652 31.256 156.082 31.16 155.57 30.968C155.058 30.776 154.615 30.504 154.242 30.152C153.879 29.7893 153.596 29.352 153.394 28.84C153.191 28.328 153.09 27.752 153.09 27.112C153.09 26.4827 153.191 25.912 153.394 25.4C153.596 24.888 153.879 24.456 154.242 24.104C154.615 23.7413 155.058 23.464 155.57 23.272C156.082 23.08 156.652 22.984 157.282 22.984C157.911 22.984 158.482 23.0853 158.994 23.288C159.506 23.48 159.943 23.7573 160.306 24.12C160.679 24.472 160.967 24.904 161.17 25.416C161.372 25.928 161.474 26.4933 161.474 27.112ZM155.874 27.112C155.874 27.7627 155.996 28.264 156.242 28.616C156.498 28.9573 156.85 29.128 157.298 29.128C157.746 29.128 158.087 28.952 158.322 28.6C158.567 28.248 158.69 27.752 158.69 27.112C158.69 26.472 158.567 25.9813 158.322 25.64C158.076 25.288 157.73 25.112 157.282 25.112C156.834 25.112 156.487 25.288 156.242 25.64C155.996 25.9813 155.874 26.472 155.874 27.112Z" fill="black"/>
<path d="M170.932 26.072C170.932 25.7413 170.836 25.5013 170.644 25.352C170.463 25.192 170.212 25.112 169.892 25.112C169.679 25.112 169.465 25.1387 169.252 25.192C169.049 25.2453 168.873 25.3253 168.724 25.432V30.984C168.617 31.016 168.447 31.048 168.212 31.08C167.988 31.112 167.753 31.128 167.508 31.128C167.273 31.128 167.06 31.112 166.868 31.08C166.687 31.048 166.532 30.984 166.404 30.888C166.276 30.792 166.175 30.664 166.1 30.504C166.036 30.3333 166.004 30.1147 166.004 29.848V25.048C166.004 24.76 166.063 24.5253 166.18 24.344C166.308 24.1627 166.479 23.9973 166.692 23.848C167.055 23.592 167.508 23.384 168.052 23.224C168.607 23.064 169.22 22.984 169.892 22.984C171.097 22.984 172.025 23.2507 172.676 23.784C173.327 24.3067 173.652 25.0373 173.652 25.976V30.984C173.545 31.016 173.375 31.048 173.14 31.08C172.916 31.112 172.681 31.128 172.436 31.128C172.201 31.128 171.988 31.112 171.796 31.08C171.615 31.048 171.46 30.984 171.332 30.888C171.204 30.792 171.103 30.664 171.028 30.504C170.964 30.3333 170.932 30.1147 170.932 29.848V26.072Z" fill="black"/>
<path d="M178.66 29.272C178.841 29.272 179.039 29.256 179.252 29.224C179.476 29.1813 179.641 29.128 179.748 29.064V27.784L178.596 27.88C178.297 27.9013 178.052 27.9653 177.86 28.072C177.668 28.1787 177.572 28.3387 177.572 28.552C177.572 28.7653 177.652 28.9413 177.812 29.08C177.983 29.208 178.265 29.272 178.66 29.272ZM178.532 22.984C179.108 22.984 179.631 23.0427 180.1 23.16C180.58 23.2773 180.985 23.4587 181.316 23.704C181.657 23.9387 181.919 24.2427 182.1 24.616C182.281 24.9787 182.372 25.4107 182.372 25.912V29.496C182.372 29.7733 182.292 30.0027 182.132 30.184C181.983 30.3547 181.801 30.504 181.588 30.632C180.895 31.048 179.919 31.256 178.66 31.256C178.095 31.256 177.583 31.2027 177.124 31.096C176.676 30.9893 176.287 30.8293 175.956 30.616C175.636 30.4027 175.385 30.1307 175.204 29.8C175.033 29.4693 174.948 29.0853 174.948 28.648C174.948 27.912 175.167 27.3467 175.604 26.952C176.041 26.5573 176.719 26.312 177.636 26.216L179.732 25.992V25.88C179.732 25.5707 179.593 25.352 179.316 25.224C179.049 25.0853 178.66 25.016 178.148 25.016C177.743 25.016 177.348 25.0587 176.964 25.144C176.58 25.2293 176.233 25.336 175.924 25.464C175.785 25.368 175.668 25.224 175.572 25.032C175.476 24.8293 175.428 24.6213 175.428 24.408C175.428 24.1307 175.492 23.912 175.62 23.752C175.759 23.5813 175.967 23.4373 176.244 23.32C176.553 23.2027 176.916 23.1173 177.332 23.064C177.759 23.0107 178.159 22.984 178.532 22.984Z" fill="black"/>
<path d="M105.216 39.128C104.949 39.128 104.693 39.1707 104.448 39.256C104.213 39.3413 104.005 39.4693 103.824 39.64C103.653 39.8 103.515 40.0027 103.408 40.248C103.301 40.4933 103.248 40.7813 103.248 41.112C103.248 41.7733 103.435 42.2693 103.808 42.6C104.192 42.9307 104.656 43.096 105.2 43.096C105.52 43.096 105.797 43.0587 106.032 42.984C106.267 42.9093 106.475 42.8293 106.656 42.744C106.869 42.8933 107.029 43.0587 107.136 43.24C107.243 43.4107 107.296 43.6187 107.296 43.864C107.296 44.3013 107.088 44.6427 106.672 44.888C106.256 45.1227 105.68 45.24 104.944 45.24C104.272 45.24 103.664 45.144 103.12 44.952C102.576 44.7493 102.107 44.472 101.712 44.12C101.328 43.7573 101.029 43.3253 100.816 42.824C100.603 42.3227 100.496 41.768 100.496 41.16C100.496 40.456 100.608 39.8427 100.832 39.32C101.067 38.7867 101.381 38.3493 101.776 38.008C102.171 37.6667 102.624 37.4107 103.136 37.24C103.659 37.0693 104.208 36.984 104.784 36.984C105.552 36.984 106.144 37.1227 106.56 37.4C106.976 37.6773 107.184 38.0347 107.184 38.472C107.184 38.6747 107.136 38.8667 107.04 39.048C106.944 39.2187 106.832 39.368 106.704 39.496C106.523 39.4107 106.304 39.3307 106.048 39.256C105.792 39.1707 105.515 39.128 105.216 39.128ZM104.368 34.504C104.72 34.1947 104.997 33.9387 105.2 33.736C105.403 33.5333 105.605 33.3413 105.808 33.16C106.224 33.16 106.555 33.2613 106.8 33.464C107.045 33.656 107.168 33.9067 107.168 34.216C107.168 34.4293 107.109 34.616 106.992 34.776C106.875 34.936 106.677 35.128 106.4 35.352L105.68 35.944C105.488 36.0933 105.285 36.216 105.072 36.312C104.869 36.3973 104.651 36.44 104.416 36.44C104.267 36.44 104.133 36.4293 104.016 36.408C103.899 36.3867 103.776 36.3493 103.648 36.296C103.52 36.232 103.381 36.1467 103.232 36.04C103.083 35.9333 102.912 35.7947 102.72 35.624L101.536 34.6C101.525 34.5467 101.515 34.4987 101.504 34.456C101.504 34.4133 101.504 34.3653 101.504 34.312C101.504 33.9813 101.589 33.7147 101.76 33.512C101.941 33.2987 102.197 33.192 102.528 33.192C102.773 33.192 102.981 33.2507 103.152 33.368C103.323 33.4747 103.547 33.6667 103.824 33.944L104.368 34.504Z" fill="#44923B"/>
<path d="M108.674 35.064C108.674 34.6587 108.808 34.3173 109.074 34.04C109.352 33.7627 109.714 33.624 110.162 33.624C110.61 33.624 110.968 33.7627 111.234 34.04C111.512 34.3173 111.65 34.6587 111.65 35.064C111.65 35.4693 111.512 35.8107 111.234 36.088C110.968 36.3653 110.61 36.504 110.162 36.504C109.714 36.504 109.352 36.3653 109.074 36.088C108.808 35.8107 108.674 35.4693 108.674 35.064ZM111.522 44.984C111.405 45.0053 111.229 45.032 110.994 45.064C110.77 45.1067 110.541 45.128 110.306 45.128C110.072 45.128 109.858 45.112 109.666 45.08C109.485 45.048 109.33 44.984 109.202 44.888C109.074 44.792 108.973 44.664 108.898 44.504C108.834 44.3333 108.802 44.1147 108.802 43.848V37.336C108.92 37.3147 109.09 37.288 109.314 37.256C109.549 37.2133 109.784 37.192 110.018 37.192C110.253 37.192 110.461 37.208 110.642 37.24C110.834 37.272 110.994 37.336 111.122 37.432C111.25 37.528 111.346 37.6613 111.41 37.832C111.485 37.992 111.522 38.2053 111.522 38.472V44.984Z" fill="#44923B"/>
<path d="M117.638 39.128C117.371 39.128 117.115 39.1707 116.87 39.256C116.635 39.3413 116.427 39.4693 116.246 39.64C116.075 39.8 115.937 40.0027 115.83 40.248C115.723 40.4933 115.67 40.7813 115.67 41.112C115.67 41.7733 115.857 42.2693 116.23 42.6C116.614 42.9307 117.078 43.096 117.622 43.096C117.942 43.096 118.219 43.0587 118.454 42.984C118.689 42.9093 118.897 42.8293 119.078 42.744C119.291 42.8933 119.451 43.0587 119.558 43.24C119.665 43.4107 119.718 43.6187 119.718 43.864C119.718 44.3013 119.51 44.6427 119.094 44.888C118.678 45.1227 118.102 45.24 117.366 45.24C116.694 45.24 116.086 45.144 115.542 44.952C114.998 44.7493 114.529 44.472 114.134 44.12C113.75 43.7573 113.451 43.3253 113.238 42.824C113.025 42.3227 112.918 41.768 112.918 41.16C112.918 40.456 113.03 39.8427 113.254 39.32C113.489 38.7867 113.803 38.3493 114.198 38.008C114.593 37.6667 115.046 37.4107 115.558 37.24C116.081 37.0693 116.63 36.984 117.206 36.984C117.974 36.984 118.566 37.1227 118.982 37.4C119.398 37.6773 119.606 38.0347 119.606 38.472C119.606 38.6747 119.558 38.8667 119.462 39.048C119.366 39.2187 119.254 39.368 119.126 39.496C118.945 39.4107 118.726 39.3307 118.47 39.256C118.214 39.1707 117.937 39.128 117.638 39.128Z" fill="#44923B"/>
<path d="M128.762 44.984C128.655 45.016 128.485 45.048 128.25 45.08C128.026 45.112 127.791 45.128 127.546 45.128C127.311 45.128 127.098 45.112 126.906 45.08C126.725 45.048 126.57 44.984 126.442 44.888C126.314 44.792 126.213 44.664 126.138 44.504C126.074 44.3333 126.042 44.1147 126.042 43.848V40.296C126.042 39.8587 125.93 39.5547 125.706 39.384C125.493 39.2027 125.226 39.112 124.906 39.112C124.693 39.112 124.49 39.1387 124.298 39.192C124.106 39.2453 123.951 39.3093 123.834 39.384V44.984C123.727 45.016 123.557 45.048 123.322 45.08C123.098 45.112 122.863 45.128 122.618 45.128C122.383 45.128 122.17 45.112 121.978 45.08C121.797 45.048 121.642 44.984 121.514 44.888C121.386 44.792 121.285 44.664 121.21 44.504C121.146 44.3333 121.114 44.1147 121.114 43.848V34.568C121.231 34.5467 121.402 34.52 121.626 34.488C121.861 34.4453 122.095 34.424 122.33 34.424C122.565 34.424 122.773 34.44 122.954 34.472C123.146 34.504 123.306 34.568 123.434 34.664C123.562 34.76 123.658 34.8933 123.722 35.064C123.797 35.224 123.834 35.4373 123.834 35.704V37.272C123.973 37.2187 124.181 37.16 124.458 37.096C124.746 37.0213 125.061 36.984 125.402 36.984C126.458 36.984 127.279 37.2507 127.866 37.784C128.463 38.3067 128.762 39.0907 128.762 40.136V44.984Z" fill="#44923B"/>
<path d="M135.369 40.072C135.369 39.7413 135.273 39.5013 135.081 39.352C134.9 39.192 134.649 39.112 134.329 39.112C134.116 39.112 133.903 39.1387 133.689 39.192C133.487 39.2453 133.311 39.3253 133.161 39.432V44.984C133.055 45.016 132.884 45.048 132.649 45.08C132.425 45.112 132.191 45.128 131.945 45.128C131.711 45.128 131.497 45.112 131.305 45.08C131.124 45.048 130.969 44.984 130.841 44.888C130.713 44.792 130.612 44.664 130.537 44.504C130.473 44.3333 130.441 44.1147 130.441 43.848V39.048C130.441 38.76 130.5 38.5253 130.617 38.344C130.745 38.1627 130.916 37.9973 131.129 37.848C131.492 37.592 131.945 37.384 132.489 37.224C133.044 37.064 133.657 36.984 134.329 36.984C135.535 36.984 136.463 37.2507 137.113 37.784C137.764 38.3067 138.089 39.0373 138.089 39.976V44.984C137.983 45.016 137.812 45.048 137.577 45.08C137.353 45.112 137.119 45.128 136.873 45.128C136.639 45.128 136.425 45.112 136.233 45.08C136.052 45.048 135.897 44.984 135.769 44.888C135.641 44.792 135.54 44.664 135.465 44.504C135.401 44.3333 135.369 44.1147 135.369 43.848V40.072Z" fill="#44923B"/>
<path d="M147.818 41.112C147.818 41.7733 147.716 42.3653 147.514 42.888C147.311 43.4 147.023 43.832 146.65 44.184C146.287 44.536 145.849 44.8027 145.337 44.984C144.825 45.1653 144.255 45.256 143.626 45.256C142.996 45.256 142.425 45.16 141.913 44.968C141.401 44.776 140.959 44.504 140.585 44.152C140.223 43.7893 139.94 43.352 139.738 42.84C139.535 42.328 139.434 41.752 139.434 41.112C139.434 40.4827 139.535 39.912 139.738 39.4C139.94 38.888 140.223 38.456 140.585 38.104C140.959 37.7413 141.401 37.464 141.913 37.272C142.425 37.08 142.996 36.984 143.626 36.984C144.255 36.984 144.825 37.0853 145.337 37.288C145.849 37.48 146.287 37.7573 146.65 38.12C147.023 38.472 147.311 38.904 147.514 39.416C147.716 39.928 147.818 40.4933 147.818 41.112ZM142.217 41.112C142.217 41.7627 142.34 42.264 142.585 42.616C142.841 42.9573 143.193 43.128 143.641 43.128C144.089 43.128 144.431 42.952 144.665 42.6C144.911 42.248 145.033 41.752 145.033 41.112C145.033 40.472 144.911 39.9813 144.665 39.64C144.42 39.288 144.074 39.112 143.626 39.112C143.178 39.112 142.831 39.288 142.585 39.64C142.34 39.9813 142.217 40.472 142.217 41.112Z" fill="#44923B"/>
<path d="M154.141 44.792C153.992 44.9093 153.773 45.0053 153.485 45.08C153.197 45.1547 152.872 45.192 152.509 45.192C152.093 45.192 151.731 45.1387 151.421 45.032C151.123 44.9253 150.915 44.7547 150.797 44.52C150.701 44.3387 150.584 44.088 150.445 43.768C150.317 43.4373 150.179 43.0747 150.029 42.68C149.88 42.2747 149.725 41.8427 149.565 41.384C149.405 40.9253 149.251 40.472 149.101 40.024C148.963 39.576 148.835 39.144 148.717 38.728C148.6 38.312 148.504 37.944 148.429 37.624C148.579 37.4747 148.776 37.3467 149.021 37.24C149.277 37.1227 149.555 37.064 149.853 37.064C150.227 37.064 150.531 37.144 150.765 37.304C151.011 37.4533 151.192 37.7413 151.309 38.168L151.933 40.616C152.051 41.096 152.163 41.5333 152.269 41.928C152.376 42.312 152.456 42.6107 152.509 42.824H152.589C152.792 42.0347 153.005 41.16 153.229 40.2C153.453 39.24 153.656 38.296 153.837 37.368C154.019 37.272 154.221 37.1973 154.445 37.144C154.68 37.0907 154.904 37.064 155.117 37.064C155.491 37.064 155.805 37.144 156.061 37.304C156.317 37.464 156.445 37.7413 156.445 38.136C156.445 38.3067 156.403 38.5573 156.317 38.888C156.243 39.208 156.141 39.576 156.013 39.992C155.896 40.3973 155.752 40.8293 155.581 41.288C155.421 41.7467 155.256 42.1947 155.085 42.632C154.915 43.0693 154.744 43.48 154.573 43.864C154.413 44.2373 154.269 44.5467 154.141 44.792Z" fill="#44923B"/>
<path d="M161.966 39.128C161.699 39.128 161.443 39.1707 161.198 39.256C160.963 39.3413 160.755 39.4693 160.574 39.64C160.403 39.8 160.265 40.0027 160.158 40.248C160.051 40.4933 159.998 40.7813 159.998 41.112C159.998 41.7733 160.185 42.2693 160.558 42.6C160.942 42.9307 161.406 43.096 161.95 43.096C162.27 43.096 162.547 43.0587 162.782 42.984C163.017 42.9093 163.225 42.8293 163.406 42.744C163.619 42.8933 163.779 43.0587 163.886 43.24C163.993 43.4107 164.046 43.6187 164.046 43.864C164.046 44.3013 163.838 44.6427 163.422 44.888C163.006 45.1227 162.43 45.24 161.694 45.24C161.022 45.24 160.414 45.144 159.87 44.952C159.326 44.7493 158.857 44.472 158.462 44.12C158.078 43.7573 157.779 43.3253 157.566 42.824C157.353 42.3227 157.246 41.768 157.246 41.16C157.246 40.456 157.358 39.8427 157.582 39.32C157.817 38.7867 158.131 38.3493 158.526 38.008C158.921 37.6667 159.374 37.4107 159.886 37.24C160.409 37.0693 160.958 36.984 161.534 36.984C162.302 36.984 162.894 37.1227 163.31 37.4C163.726 37.6773 163.934 38.0347 163.934 38.472C163.934 38.6747 163.886 38.8667 163.79 39.048C163.694 39.2187 163.582 39.368 163.454 39.496C163.273 39.4107 163.054 39.3307 162.798 39.256C162.542 39.1707 162.265 39.128 161.966 39.128Z" fill="#44923B"/>
<path d="M169.288 45.256C168.658 45.256 168.072 45.1707 167.528 45C166.994 44.8187 166.525 44.552 166.12 44.2C165.725 43.848 165.41 43.4053 165.176 42.872C164.952 42.3387 164.84 41.7147 164.84 41C164.84 40.296 164.952 39.6933 165.176 39.192C165.41 38.68 165.714 38.264 166.088 37.944C166.461 37.6133 166.888 37.3733 167.368 37.224C167.848 37.064 168.338 36.984 168.84 36.984C169.405 36.984 169.917 37.0693 170.376 37.24C170.845 37.4107 171.245 37.6453 171.576 37.944C171.917 38.2427 172.178 38.6 172.36 39.016C172.552 39.432 172.648 39.8853 172.648 40.376C172.648 40.7387 172.546 41.016 172.344 41.208C172.141 41.4 171.858 41.5227 171.496 41.576L167.544 42.168C167.661 42.52 167.901 42.7867 168.264 42.968C168.626 43.1387 169.042 43.224 169.512 43.224C169.949 43.224 170.36 43.1707 170.744 43.064C171.138 42.9467 171.458 42.8133 171.704 42.664C171.874 42.7707 172.018 42.92 172.136 43.112C172.253 43.304 172.312 43.5067 172.312 43.72C172.312 44.2 172.088 44.5573 171.64 44.792C171.298 44.9733 170.914 45.096 170.488 45.16C170.061 45.224 169.661 45.256 169.288 45.256ZM168.84 38.968C168.584 38.968 168.36 39.0107 168.168 39.096C167.986 39.1813 167.837 39.2933 167.72 39.432C167.602 39.56 167.512 39.7093 167.448 39.88C167.394 40.04 167.362 40.2053 167.352 40.376L170.088 39.928C170.056 39.7147 169.938 39.5013 169.736 39.288C169.533 39.0747 169.234 38.968 168.84 38.968Z" fill="#44923B"/>
</svg>
