<svg width="95" height="45" viewBox="0 0 95 45" fill="none" xmlns="http://www.w3.org/2000/svg">
<path d="M93.5076 32.642C94.8871 29.9302 94.0185 26.6151 91.4864 24.9282L56.0069 1.29147C53.0169 -0.700481 48.9585 0.364029 47.3311 3.56709L30.3267 37.0361C28.4741 40.6825 31.1233 45 35.2133 45C37.3403 45 39.2752 43.7695 40.1772 41.8433L50.7784 19.205C52.2995 15.9566 56.3121 14.7598 59.3642 16.6442L79.3456 28.9808C81.914 30.5666 82.8594 33.8428 81.5307 36.5531L80.5204 38.6141C79.0761 41.5602 81.2208 45 84.5018 45C86.1703 45 87.6975 44.0634 88.454 42.5764L93.5076 32.642Z" fill="#44923B"/>
<path d="M50.5746 15.9616C49.7468 12.6139 46.2742 10.6514 42.9793 11.6691L4.67805 23.4996C1.73431 24.4089 -0.0423281 27.3999 0.567483 30.42L3.14134 43.1667C3.35668 44.2331 4.29386 45 5.38181 45C6.82624 45 7.90851 43.6769 7.62212 42.2611L5.9277 33.8849C5.31643 30.8631 7.09467 27.8699 10.0408 26.9616L39.7973 17.787C43.0905 16.7716 46.5603 18.7328 47.389 22.0779L52.6393 43.2715C52.8909 44.2869 53.8022 45 54.8483 45C56.3264 45 57.4123 43.6129 57.0574 42.178L50.5746 15.9616Z" fill="black"/>
<path d="M23.4535 35.1339C23.9477 31.7793 27.1215 29.5004 30.4581 30.1044L38.4034 31.5425C41.5416 32.1106 43.687 35.0343 43.2875 38.1983L43.0913 39.7517C42.7126 42.751 40.1616 45 37.1386 45H28.9487C25.2868 45 22.479 41.7483 23.0128 38.1255L23.4535 35.1339Z" fill="#FFE100"/>
</svg>
