<svg width="94" height="75" viewBox="0 0 94 75" fill="none" xmlns="http://www.w3.org/2000/svg">
<path d="M93.0597 32.3585C94.4392 29.6467 93.5706 26.3316 91.0385 24.6447L55.559 1.00799C52.569 -0.983958 48.5105 0.0805509 46.8832 3.28361L29.8788 36.7526C28.0262 40.399 30.6754 44.7165 34.7654 44.7165C36.8923 44.7165 38.8272 43.4861 39.7293 41.5599L50.3304 18.9215C51.8516 15.6732 55.8642 14.4764 58.9162 16.3607L78.8976 28.6973C81.466 30.2831 82.4115 33.5593 81.0828 36.2697L80.0724 38.3306C78.6282 41.2767 80.7728 44.7165 84.0539 44.7165C85.7223 44.7165 87.2495 43.78 88.006 42.2929L93.0597 32.3585Z" fill="#44923B"/>
<path d="M50.1266 15.6781C49.2988 12.3305 45.8262 10.3679 42.5314 11.3856L4.23011 23.2162C1.28637 24.1254 -0.490265 27.1165 0.119546 30.1365L2.69341 42.8832C2.90874 43.9497 3.84592 44.7165 4.93387 44.7165C6.3783 44.7165 7.46057 43.3934 7.17418 41.9776L5.47976 33.6014C4.86849 30.5797 6.64674 27.5864 9.59283 26.6781L39.3493 17.5035C42.6426 16.4882 46.1124 18.4493 46.9411 21.7944L52.1914 42.988C52.4429 44.0034 53.3543 44.7165 54.4003 44.7165C55.8784 44.7165 56.9643 43.3294 56.6095 41.8945L50.1266 15.6781Z" fill="black"/>
<path d="M23.0056 34.8504C23.4998 31.4958 26.6736 29.2169 30.0102 29.8209L37.9555 31.2591C41.0936 31.8271 43.2391 34.7508 42.8395 37.9148L42.6434 39.4682C42.2646 42.4675 39.7137 44.7165 36.6906 44.7165H28.5008C24.8389 44.7165 22.0311 41.4648 22.5648 37.8421L23.0056 34.8504Z" fill="#FFE100"/>
<path d="M8.432 58.592C8.37867 59.0933 8.22933 59.4773 7.984 59.744C7.74933 60.0107 7.40267 60.144 6.944 60.144C6.60267 60.144 6.29867 60.064 6.032 59.904C5.76533 59.7333 5.47733 59.4507 5.168 59.056L3.584 57.072V59.984C3.46667 60.0053 3.29067 60.032 3.056 60.064C2.832 60.1067 2.60267 60.128 2.368 60.128C2.13333 60.128 1.92 60.112 1.728 60.08C1.54667 60.048 1.392 59.984 1.264 59.888C1.136 59.792 1.03467 59.664 0.96 59.504C0.896 59.3333 0.864 59.1147 0.864 58.848V49.584C0.981334 49.552 1.152 49.52 1.376 49.488C1.61067 49.4453 1.84533 49.424 2.08 49.424C2.31467 49.424 2.52267 49.44 2.704 49.472C2.896 49.504 3.056 49.568 3.184 49.664C3.312 49.76 3.408 49.8933 3.472 50.064C3.54667 50.224 3.584 50.4373 3.584 50.704V54.928L6.336 52.112C6.89067 52.112 7.33333 52.2347 7.664 52.48C8.00533 52.7253 8.176 53.0347 8.176 53.408C8.176 53.568 8.14933 53.7173 8.096 53.856C8.04267 53.984 7.95733 54.1173 7.84 54.256C7.73333 54.3947 7.58933 54.544 7.408 54.704C7.23733 54.8533 7.03467 55.0293 6.8 55.232L5.872 56.032L8.432 58.592Z" fill="black"/>
<path d="M13.0663 58.272C13.2476 58.272 13.4449 58.256 13.6583 58.224C13.8823 58.1813 14.0476 58.128 14.1543 58.064V56.784L13.0023 56.88C12.7036 56.9013 12.4583 56.9653 12.2663 57.072C12.0743 57.1787 11.9783 57.3387 11.9783 57.552C11.9783 57.7653 12.0583 57.9413 12.2183 58.08C12.3889 58.208 12.6716 58.272 13.0663 58.272ZM12.9383 51.984C13.5143 51.984 14.0369 52.0427 14.5063 52.16C14.9863 52.2773 15.3916 52.4587 15.7223 52.704C16.0636 52.9387 16.3249 53.2427 16.5063 53.616C16.6876 53.9787 16.7782 54.4107 16.7782 54.912V58.496C16.7782 58.7733 16.6982 59.0027 16.5382 59.184C16.3889 59.3547 16.2076 59.504 15.9943 59.632C15.3009 60.048 14.3249 60.256 13.0663 60.256C12.5009 60.256 11.9889 60.2027 11.5303 60.096C11.0823 59.9893 10.6929 59.8293 10.3623 59.616C10.0423 59.4027 9.79158 59.1307 9.61025 58.8C9.43958 58.4693 9.35425 58.0853 9.35425 57.648C9.35425 56.912 9.57292 56.3467 10.0103 55.952C10.4476 55.5573 11.1249 55.312 12.0423 55.216L14.1383 54.992V54.88C14.1383 54.5707 13.9996 54.352 13.7223 54.224C13.4556 54.0853 13.0663 54.016 12.5543 54.016C12.1489 54.016 11.7543 54.0587 11.3703 54.144C10.9863 54.2293 10.6396 54.336 10.3303 54.464C10.1916 54.368 10.0743 54.224 9.97825 54.032C9.88225 53.8293 9.83425 53.6213 9.83425 53.408C9.83425 53.1307 9.89825 52.912 10.0262 52.752C10.1649 52.5813 10.3729 52.4373 10.6503 52.32C10.9596 52.2027 11.3223 52.1173 11.7383 52.064C12.1649 52.0107 12.5649 51.984 12.9383 51.984Z" fill="black"/>
<path d="M21.1614 59.984C21.0547 60.016 20.884 60.048 20.6494 60.08C20.4254 60.112 20.1907 60.128 19.9454 60.128C19.7107 60.128 19.4974 60.112 19.3054 60.08C19.124 60.048 18.9694 59.984 18.8414 59.888C18.7134 59.792 18.612 59.664 18.5374 59.504C18.4734 59.3333 18.4414 59.1147 18.4414 58.848V54.048C18.4414 53.8027 18.484 53.5947 18.5694 53.424C18.6654 53.2427 18.7987 53.0827 18.9694 52.944C19.14 52.8053 19.348 52.6827 19.5934 52.576C19.8494 52.4587 20.1214 52.3573 20.4094 52.272C20.6974 52.1867 20.996 52.1227 21.3054 52.08C21.6147 52.0267 21.924 52 22.2334 52C22.7454 52 23.1507 52.1013 23.4494 52.304C23.748 52.496 23.8974 52.816 23.8974 53.264C23.8974 53.4133 23.876 53.5627 23.8334 53.712C23.7907 53.8507 23.7374 53.9787 23.6734 54.096C23.4494 54.096 23.22 54.1067 22.9854 54.128C22.7507 54.1493 22.5214 54.1813 22.2974 54.224C22.0734 54.2667 21.86 54.3147 21.6574 54.368C21.4654 54.4107 21.3 54.464 21.1614 54.528V59.984Z" fill="black"/>
<path d="M24.9555 50.064C24.9555 49.6587 25.0888 49.3173 25.3555 49.04C25.6328 48.7627 25.9955 48.624 26.4435 48.624C26.8915 48.624 27.2488 48.7627 27.5155 49.04C27.7928 49.3173 27.9315 49.6587 27.9315 50.064C27.9315 50.4693 27.7928 50.8107 27.5155 51.088C27.2488 51.3653 26.8915 51.504 26.4435 51.504C25.9955 51.504 25.6328 51.3653 25.3555 51.088C25.0888 50.8107 24.9555 50.4693 24.9555 50.064ZM27.8035 59.984C27.6862 60.0053 27.5102 60.032 27.2755 60.064C27.0515 60.1067 26.8222 60.128 26.5875 60.128C26.3528 60.128 26.1395 60.112 25.9475 60.08C25.7662 60.048 25.6115 59.984 25.4835 59.888C25.3555 59.792 25.2542 59.664 25.1795 59.504C25.1155 59.3333 25.0835 59.1147 25.0835 58.848V52.336C25.2008 52.3147 25.3715 52.288 25.5955 52.256C25.8302 52.2133 26.0648 52.192 26.2995 52.192C26.5342 52.192 26.7422 52.208 26.9235 52.24C27.1155 52.272 27.2755 52.336 27.4035 52.432C27.5315 52.528 27.6275 52.6613 27.6915 52.832C27.7662 52.992 27.8035 53.2053 27.8035 53.472V59.984Z" fill="black"/>
<path d="M33.6471 60.256C33.0178 60.256 32.4311 60.1707 31.8871 60C31.3538 59.8187 30.8845 59.552 30.4791 59.2C30.0845 58.848 29.7698 58.4053 29.5351 57.872C29.3111 57.3387 29.1991 56.7147 29.1991 56C29.1991 55.296 29.3111 54.6933 29.5351 54.192C29.7698 53.68 30.0738 53.264 30.4471 52.944C30.8205 52.6133 31.2471 52.3733 31.7271 52.224C32.2071 52.064 32.6978 51.984 33.1991 51.984C33.7645 51.984 34.2765 52.0693 34.7351 52.24C35.2045 52.4107 35.6045 52.6453 35.9351 52.944C36.2765 53.2427 36.5378 53.6 36.7191 54.016C36.9111 54.432 37.0071 54.8853 37.0071 55.376C37.0071 55.7387 36.9058 56.016 36.7031 56.208C36.5005 56.4 36.2178 56.5227 35.8551 56.576L31.9031 57.168C32.0205 57.52 32.2605 57.7867 32.6231 57.968C32.9858 58.1387 33.4018 58.224 33.8711 58.224C34.3085 58.224 34.7191 58.1707 35.1031 58.064C35.4978 57.9467 35.8178 57.8133 36.0631 57.664C36.2338 57.7707 36.3778 57.92 36.4951 58.112C36.6125 58.304 36.6711 58.5067 36.6711 58.72C36.6711 59.2 36.4471 59.5573 35.9991 59.792C35.6578 59.9733 35.2738 60.096 34.8471 60.16C34.4205 60.224 34.0205 60.256 33.6471 60.256ZM33.1991 53.968C32.9431 53.968 32.7191 54.0107 32.5271 54.096C32.3458 54.1813 32.1965 54.2933 32.0791 54.432C31.9618 54.56 31.8711 54.7093 31.8071 54.88C31.7538 55.04 31.7218 55.2053 31.7111 55.376L34.4471 54.928C34.4151 54.7147 34.2978 54.5013 34.0951 54.288C33.8925 54.0747 33.5938 53.968 33.1991 53.968ZM33.4871 48.096C34.0418 48.096 34.4418 48.2027 34.6871 48.416C34.9431 48.6293 35.0711 48.8853 35.0711 49.184C35.0711 49.4613 34.9965 49.696 34.8471 49.888C34.6978 50.0693 34.4525 50.2507 34.1111 50.432L32.0471 51.52C31.7271 51.488 31.4551 51.36 31.2311 51.136C31.0071 50.912 30.8951 50.672 30.8951 50.416C30.8951 50.288 30.9271 50.16 30.9911 50.032C31.0551 49.904 31.1618 49.7867 31.3111 49.68L33.4871 48.096Z" fill="black"/>
<path d="M41.052 59.984C40.9453 60.016 40.7747 60.048 40.54 60.08C40.316 60.112 40.0813 60.128 39.836 60.128C39.6013 60.128 39.388 60.112 39.196 60.08C39.0147 60.048 38.86 59.984 38.732 59.888C38.604 59.792 38.5027 59.664 38.428 59.504C38.364 59.3333 38.332 59.1147 38.332 58.848V54.048C38.332 53.8027 38.3747 53.5947 38.46 53.424C38.556 53.2427 38.6893 53.0827 38.86 52.944C39.0307 52.8053 39.2387 52.6827 39.484 52.576C39.74 52.4587 40.012 52.3573 40.3 52.272C40.588 52.1867 40.8867 52.1227 41.196 52.08C41.5053 52.0267 41.8147 52 42.124 52C42.636 52 43.0413 52.1013 43.34 52.304C43.6387 52.496 43.788 52.816 43.788 53.264C43.788 53.4133 43.7667 53.5627 43.724 53.712C43.6813 53.8507 43.628 53.9787 43.564 54.096C43.34 54.096 43.1107 54.1067 42.876 54.128C42.6413 54.1493 42.412 54.1813 42.188 54.224C41.964 54.2667 41.7507 54.3147 41.548 54.368C41.356 54.4107 41.1907 54.464 41.052 54.528V59.984Z" fill="black"/>
<path d="M52.5101 58.592C52.4568 59.0933 52.3075 59.4773 52.0621 59.744C51.8275 60.0107 51.4808 60.144 51.0221 60.144C50.6808 60.144 50.3768 60.064 50.1101 59.904C49.8435 59.7333 49.5555 59.4507 49.2461 59.056L47.6621 57.072V59.984C47.5448 60.0053 47.3688 60.032 47.1341 60.064C46.9101 60.1067 46.6808 60.128 46.4461 60.128C46.2115 60.128 45.9981 60.112 45.8061 60.08C45.6248 60.048 45.4701 59.984 45.3421 59.888C45.2141 59.792 45.1128 59.664 45.0381 59.504C44.9741 59.3333 44.9421 59.1147 44.9421 58.848V49.584C45.0595 49.552 45.2301 49.52 45.4541 49.488C45.6888 49.4453 45.9235 49.424 46.1581 49.424C46.3928 49.424 46.6008 49.44 46.7821 49.472C46.9741 49.504 47.1341 49.568 47.2621 49.664C47.3901 49.76 47.4861 49.8933 47.5501 50.064C47.6248 50.224 47.6621 50.4373 47.6621 50.704V54.928L50.4141 52.112C50.9688 52.112 51.4115 52.2347 51.7421 52.48C52.0835 52.7253 52.2541 53.0347 52.2541 53.408C52.2541 53.568 52.2275 53.7173 52.1741 53.856C52.1208 53.984 52.0355 54.1173 51.9181 54.256C51.8115 54.3947 51.6675 54.544 51.4861 54.704C51.3155 54.8533 51.1128 55.0293 50.8781 55.232L49.9501 56.032L52.5101 58.592Z" fill="black"/>
<path d="M61.4738 56.112C61.4738 56.7733 61.3724 57.3653 61.1698 57.888C60.9671 58.4 60.6791 58.832 60.3058 59.184C59.9431 59.536 59.5058 59.8027 58.9938 59.984C58.4818 60.1653 57.9111 60.256 57.2817 60.256C56.6524 60.256 56.0818 60.16 55.5698 59.968C55.0578 59.776 54.6151 59.504 54.2417 59.152C53.8791 58.7893 53.5964 58.352 53.3937 57.84C53.1911 57.328 53.0897 56.752 53.0897 56.112C53.0897 55.4827 53.1911 54.912 53.3937 54.4C53.5964 53.888 53.8791 53.456 54.2417 53.104C54.6151 52.7413 55.0578 52.464 55.5698 52.272C56.0818 52.08 56.6524 51.984 57.2817 51.984C57.9111 51.984 58.4818 52.0853 58.9938 52.288C59.5058 52.48 59.9431 52.7573 60.3058 53.12C60.6791 53.472 60.9671 53.904 61.1698 54.416C61.3724 54.928 61.4738 55.4933 61.4738 56.112ZM55.8737 56.112C55.8737 56.7627 55.9964 57.264 56.2417 57.616C56.4977 57.9573 56.8497 58.128 57.2977 58.128C57.7457 58.128 58.0871 57.952 58.3218 57.6C58.5671 57.248 58.6898 56.752 58.6898 56.112C58.6898 55.472 58.5671 54.9813 58.3218 54.64C58.0764 54.288 57.7297 54.112 57.2817 54.112C56.8337 54.112 56.4871 54.288 56.2417 54.64C55.9964 54.9813 55.8737 55.472 55.8737 56.112Z" fill="black"/>
<path d="M70.9319 55.072C70.9319 54.7413 70.8359 54.5013 70.6439 54.352C70.4625 54.192 70.2119 54.112 69.8919 54.112C69.6785 54.112 69.4652 54.1387 69.2519 54.192C69.0492 54.2453 68.8732 54.3253 68.7239 54.432V59.984C68.6172 60.016 68.4465 60.048 68.2119 60.08C67.9879 60.112 67.7532 60.128 67.5079 60.128C67.2732 60.128 67.0599 60.112 66.8679 60.08C66.6865 60.048 66.5319 59.984 66.4039 59.888C66.2759 59.792 66.1745 59.664 66.0999 59.504C66.0359 59.3333 66.0039 59.1147 66.0039 58.848V54.048C66.0039 53.76 66.0625 53.5253 66.1799 53.344C66.3079 53.1627 66.4785 52.9973 66.6919 52.848C67.0545 52.592 67.5079 52.384 68.0519 52.224C68.6065 52.064 69.2199 51.984 69.8919 51.984C71.0972 51.984 72.0252 52.2507 72.6759 52.784C73.3265 53.3067 73.6519 54.0373 73.6519 54.976V59.984C73.5452 60.016 73.3745 60.048 73.1399 60.08C72.9159 60.112 72.6812 60.128 72.4359 60.128C72.2012 60.128 71.9879 60.112 71.7959 60.08C71.6145 60.048 71.4599 59.984 71.3319 59.888C71.2039 59.792 71.1025 59.664 71.0279 59.504C70.9639 59.3333 70.9319 59.1147 70.9319 58.848V55.072Z" fill="black"/>
<path d="M78.66 58.272C78.8413 58.272 79.0387 58.256 79.252 58.224C79.476 58.1813 79.6413 58.128 79.748 58.064V56.784L78.596 56.88C78.2973 56.9013 78.052 56.9653 77.86 57.072C77.668 57.1787 77.572 57.3387 77.572 57.552C77.572 57.7653 77.652 57.9413 77.812 58.08C77.9827 58.208 78.2653 58.272 78.66 58.272ZM78.532 51.984C79.108 51.984 79.6307 52.0427 80.1 52.16C80.58 52.2773 80.9853 52.4587 81.316 52.704C81.6573 52.9387 81.9187 53.2427 82.1 53.616C82.2813 53.9787 82.372 54.4107 82.372 54.912V58.496C82.372 58.7733 82.292 59.0027 82.132 59.184C81.9827 59.3547 81.8013 59.504 81.588 59.632C80.8947 60.048 79.9187 60.256 78.66 60.256C78.0947 60.256 77.5827 60.2027 77.124 60.096C76.676 59.9893 76.2867 59.8293 75.956 59.616C75.636 59.4027 75.3853 59.1307 75.204 58.8C75.0333 58.4693 74.948 58.0853 74.948 57.648C74.948 56.912 75.1667 56.3467 75.604 55.952C76.0413 55.5573 76.7187 55.312 77.636 55.216L79.732 54.992V54.88C79.732 54.5707 79.5933 54.352 79.316 54.224C79.0493 54.0853 78.66 54.016 78.148 54.016C77.7427 54.016 77.348 54.0587 76.964 54.144C76.58 54.2293 76.2333 54.336 75.924 54.464C75.7853 54.368 75.668 54.224 75.572 54.032C75.476 53.8293 75.428 53.6213 75.428 53.408C75.428 53.1307 75.492 52.912 75.62 52.752C75.7587 52.5813 75.9667 52.4373 76.244 52.32C76.5533 52.2027 76.916 52.1173 77.332 52.064C77.7587 52.0107 78.1587 51.984 78.532 51.984Z" fill="black"/>
<path d="M5.216 68.128C4.94933 68.128 4.69333 68.1707 4.448 68.256C4.21333 68.3413 4.00533 68.4693 3.824 68.64C3.65333 68.8 3.51467 69.0027 3.408 69.248C3.30133 69.4933 3.248 69.7813 3.248 70.112C3.248 70.7733 3.43467 71.2693 3.808 71.6C4.192 71.9307 4.656 72.096 5.2 72.096C5.52 72.096 5.79733 72.0587 6.032 71.984C6.26667 71.9093 6.47467 71.8293 6.656 71.744C6.86933 71.8933 7.02933 72.0587 7.136 72.24C7.24267 72.4107 7.296 72.6187 7.296 72.864C7.296 73.3013 7.088 73.6427 6.672 73.888C6.256 74.1227 5.68 74.24 4.944 74.24C4.272 74.24 3.664 74.144 3.12 73.952C2.576 73.7493 2.10667 73.472 1.712 73.12C1.328 72.7573 1.02933 72.3253 0.816 71.824C0.602667 71.3227 0.496 70.768 0.496 70.16C0.496 69.456 0.608 68.8427 0.832 68.32C1.06667 67.7867 1.38133 67.3493 1.776 67.008C2.17067 66.6667 2.624 66.4107 3.136 66.24C3.65867 66.0693 4.208 65.984 4.784 65.984C5.552 65.984 6.144 66.1227 6.56 66.4C6.976 66.6773 7.184 67.0347 7.184 67.472C7.184 67.6747 7.136 67.8667 7.04 68.048C6.944 68.2187 6.832 68.368 6.704 68.496C6.52267 68.4107 6.304 68.3307 6.048 68.256C5.792 68.1707 5.51467 68.128 5.216 68.128ZM4.368 63.504C4.72 63.1947 4.99733 62.9387 5.2 62.736C5.40267 62.5333 5.60533 62.3413 5.808 62.16C6.224 62.16 6.55467 62.2613 6.8 62.464C7.04533 62.656 7.168 62.9067 7.168 63.216C7.168 63.4293 7.10933 63.616 6.992 63.776C6.87467 63.936 6.67733 64.128 6.4 64.352L5.68 64.944C5.488 65.0933 5.28533 65.216 5.072 65.312C4.86933 65.3973 4.65067 65.44 4.416 65.44C4.26667 65.44 4.13333 65.4293 4.016 65.408C3.89867 65.3867 3.776 65.3493 3.648 65.296C3.52 65.232 3.38133 65.1467 3.232 65.04C3.08267 64.9333 2.912 64.7947 2.72 64.624L1.536 63.6C1.52533 63.5467 1.51467 63.4987 1.504 63.456C1.504 63.4133 1.504 63.3653 1.504 63.312C1.504 62.9813 1.58933 62.7147 1.76 62.512C1.94133 62.2987 2.19733 62.192 2.528 62.192C2.77333 62.192 2.98133 62.2507 3.152 62.368C3.32267 62.4747 3.54667 62.6667 3.824 62.944L4.368 63.504Z" fill="#44923B"/>
<path d="M8.67425 64.064C8.67425 63.6587 8.80758 63.3173 9.07425 63.04C9.35158 62.7627 9.71425 62.624 10.1623 62.624C10.6103 62.624 10.9676 62.7627 11.2343 63.04C11.5116 63.3173 11.6503 63.6587 11.6503 64.064C11.6503 64.4693 11.5116 64.8107 11.2343 65.088C10.9676 65.3653 10.6103 65.504 10.1623 65.504C9.71425 65.504 9.35158 65.3653 9.07425 65.088C8.80758 64.8107 8.67425 64.4693 8.67425 64.064ZM11.5223 73.984C11.4049 74.0053 11.2289 74.032 10.9943 74.064C10.7703 74.1067 10.5409 74.128 10.3063 74.128C10.0716 74.128 9.85825 74.112 9.66625 74.08C9.48492 74.048 9.33025 73.984 9.20225 73.888C9.07425 73.792 8.97292 73.664 8.89825 73.504C8.83425 73.3333 8.80225 73.1147 8.80225 72.848V66.336C8.91958 66.3147 9.09025 66.288 9.31425 66.256C9.54892 66.2133 9.78358 66.192 10.0183 66.192C10.2529 66.192 10.4609 66.208 10.6423 66.24C10.8343 66.272 10.9943 66.336 11.1223 66.432C11.2503 66.528 11.3463 66.6613 11.4103 66.832C11.4849 66.992 11.5223 67.2053 11.5223 67.472V73.984Z" fill="#44923B"/>
<path d="M17.6379 68.128C17.3712 68.128 17.1152 68.1707 16.8699 68.256C16.6352 68.3413 16.4272 68.4693 16.2459 68.64C16.0752 68.8 15.9365 69.0027 15.8299 69.248C15.7232 69.4933 15.6699 69.7813 15.6699 70.112C15.6699 70.7733 15.8565 71.2693 16.2299 71.6C16.6139 71.9307 17.0779 72.096 17.6219 72.096C17.9419 72.096 18.2192 72.0587 18.4539 71.984C18.6885 71.9093 18.8965 71.8293 19.0779 71.744C19.2912 71.8933 19.4512 72.0587 19.5579 72.24C19.6645 72.4107 19.7179 72.6187 19.7179 72.864C19.7179 73.3013 19.5099 73.6427 19.0939 73.888C18.6779 74.1227 18.1019 74.24 17.3659 74.24C16.6939 74.24 16.0859 74.144 15.5419 73.952C14.9979 73.7493 14.5285 73.472 14.1339 73.12C13.7499 72.7573 13.4512 72.3253 13.2379 71.824C13.0245 71.3227 12.9179 70.768 12.9179 70.16C12.9179 69.456 13.0299 68.8427 13.2539 68.32C13.4885 67.7867 13.8032 67.3493 14.1979 67.008C14.5925 66.6667 15.0459 66.4107 15.5579 66.24C16.0805 66.0693 16.6299 65.984 17.2059 65.984C17.9739 65.984 18.5659 66.1227 18.9819 66.4C19.3979 66.6773 19.6059 67.0347 19.6059 67.472C19.6059 67.6747 19.5579 67.8667 19.4619 68.048C19.3659 68.2187 19.2539 68.368 19.1259 68.496C18.9445 68.4107 18.7259 68.3307 18.4699 68.256C18.2139 68.1707 17.9365 68.128 17.6379 68.128Z" fill="#44923B"/>
<path d="M28.762 73.984C28.6553 74.016 28.4847 74.048 28.25 74.08C28.026 74.112 27.7913 74.128 27.546 74.128C27.3113 74.128 27.098 74.112 26.906 74.08C26.7247 74.048 26.57 73.984 26.442 73.888C26.314 73.792 26.2127 73.664 26.138 73.504C26.074 73.3333 26.042 73.1147 26.042 72.848V69.296C26.042 68.8587 25.93 68.5547 25.706 68.384C25.4927 68.2027 25.226 68.112 24.906 68.112C24.6927 68.112 24.49 68.1387 24.298 68.192C24.106 68.2453 23.9513 68.3093 23.834 68.384V73.984C23.7273 74.016 23.5567 74.048 23.322 74.08C23.098 74.112 22.8633 74.128 22.618 74.128C22.3833 74.128 22.17 74.112 21.978 74.08C21.7967 74.048 21.642 73.984 21.514 73.888C21.386 73.792 21.2847 73.664 21.21 73.504C21.146 73.3333 21.114 73.1147 21.114 72.848V63.568C21.2313 63.5467 21.402 63.52 21.626 63.488C21.8607 63.4453 22.0953 63.424 22.33 63.424C22.5647 63.424 22.7727 63.44 22.954 63.472C23.146 63.504 23.306 63.568 23.434 63.664C23.562 63.76 23.658 63.8933 23.722 64.064C23.7967 64.224 23.834 64.4373 23.834 64.704V66.272C23.9727 66.2187 24.1807 66.16 24.458 66.096C24.746 66.0213 25.0607 65.984 25.402 65.984C26.458 65.984 27.2793 66.2507 27.866 66.784C28.4633 67.3067 28.762 68.0907 28.762 69.136V73.984Z" fill="#44923B"/>
<path d="M35.3694 69.072C35.3694 68.7413 35.2734 68.5013 35.0814 68.352C34.9 68.192 34.6494 68.112 34.3294 68.112C34.116 68.112 33.9027 68.1387 33.6894 68.192C33.4867 68.2453 33.3107 68.3253 33.1614 68.432V73.984C33.0547 74.016 32.884 74.048 32.6494 74.08C32.4254 74.112 32.1907 74.128 31.9454 74.128C31.7107 74.128 31.4974 74.112 31.3054 74.08C31.124 74.048 30.9694 73.984 30.8414 73.888C30.7134 73.792 30.612 73.664 30.5374 73.504C30.4734 73.3333 30.4414 73.1147 30.4414 72.848V68.048C30.4414 67.76 30.5 67.5253 30.6174 67.344C30.7454 67.1627 30.916 66.9973 31.1294 66.848C31.492 66.592 31.9454 66.384 32.4894 66.224C33.044 66.064 33.6574 65.984 34.3294 65.984C35.5347 65.984 36.4627 66.2507 37.1134 66.784C37.764 67.3067 38.0894 68.0373 38.0894 68.976V73.984C37.9827 74.016 37.812 74.048 37.5774 74.08C37.3534 74.112 37.1187 74.128 36.8734 74.128C36.6387 74.128 36.4254 74.112 36.2334 74.08C36.052 74.048 35.8974 73.984 35.7694 73.888C35.6414 73.792 35.54 73.664 35.4654 73.504C35.4014 73.3333 35.3694 73.1147 35.3694 72.848V69.072Z" fill="#44923B"/>
<path d="M47.8175 70.112C47.8175 70.7733 47.7162 71.3653 47.5135 71.888C47.3108 72.4 47.0228 72.832 46.6495 73.184C46.2868 73.536 45.8495 73.8027 45.3375 73.984C44.8255 74.1653 44.2548 74.256 43.6255 74.256C42.9962 74.256 42.4255 74.16 41.9135 73.968C41.4015 73.776 40.9588 73.504 40.5855 73.152C40.2228 72.7893 39.9402 72.352 39.7375 71.84C39.5348 71.328 39.4335 70.752 39.4335 70.112C39.4335 69.4827 39.5348 68.912 39.7375 68.4C39.9402 67.888 40.2228 67.456 40.5855 67.104C40.9588 66.7413 41.4015 66.464 41.9135 66.272C42.4255 66.08 42.9962 65.984 43.6255 65.984C44.2548 65.984 44.8255 66.0853 45.3375 66.288C45.8495 66.48 46.2868 66.7573 46.6495 67.12C47.0228 67.472 47.3108 67.904 47.5135 68.416C47.7162 68.928 47.8175 69.4933 47.8175 70.112ZM42.2175 70.112C42.2175 70.7627 42.3402 71.264 42.5855 71.616C42.8415 71.9573 43.1935 72.128 43.6415 72.128C44.0895 72.128 44.4308 71.952 44.6655 71.6C44.9108 71.248 45.0335 70.752 45.0335 70.112C45.0335 69.472 44.9108 68.9813 44.6655 68.64C44.4202 68.288 44.0735 68.112 43.6255 68.112C43.1775 68.112 42.8308 68.288 42.5855 68.64C42.3402 68.9813 42.2175 69.472 42.2175 70.112Z" fill="#44923B"/>
<path d="M54.1414 73.792C53.992 73.9093 53.7734 74.0053 53.4854 74.08C53.1974 74.1547 52.872 74.192 52.5094 74.192C52.0934 74.192 51.7307 74.1387 51.4214 74.032C51.1227 73.9253 50.9147 73.7547 50.7974 73.52C50.7014 73.3387 50.584 73.088 50.4454 72.768C50.3174 72.4373 50.1787 72.0747 50.0294 71.68C49.88 71.2747 49.7254 70.8427 49.5654 70.384C49.4054 69.9253 49.2507 69.472 49.1014 69.024C48.9627 68.576 48.8347 68.144 48.7174 67.728C48.6 67.312 48.504 66.944 48.4294 66.624C48.5787 66.4747 48.776 66.3467 49.0214 66.24C49.2774 66.1227 49.5547 66.064 49.8534 66.064C50.2267 66.064 50.5307 66.144 50.7654 66.304C51.0107 66.4533 51.192 66.7413 51.3094 67.168L51.9334 69.616C52.0507 70.096 52.1627 70.5333 52.2694 70.928C52.376 71.312 52.456 71.6107 52.5094 71.824H52.5894C52.792 71.0347 53.0054 70.16 53.2294 69.2C53.4534 68.24 53.656 67.296 53.8374 66.368C54.0187 66.272 54.2214 66.1973 54.4454 66.144C54.68 66.0907 54.904 66.064 55.1174 66.064C55.4907 66.064 55.8054 66.144 56.0614 66.304C56.3174 66.464 56.4454 66.7413 56.4454 67.136C56.4454 67.3067 56.4027 67.5573 56.3174 67.888C56.2427 68.208 56.1414 68.576 56.0134 68.992C55.896 69.3973 55.752 69.8293 55.5814 70.288C55.4214 70.7467 55.256 71.1947 55.0854 71.632C54.9147 72.0693 54.744 72.48 54.5734 72.864C54.4134 73.2373 54.2694 73.5467 54.1414 73.792Z" fill="#44923B"/>
<path d="M61.966 68.128C61.6993 68.128 61.4433 68.1707 61.198 68.256C60.9633 68.3413 60.7553 68.4693 60.574 68.64C60.4033 68.8 60.2647 69.0027 60.158 69.248C60.0513 69.4933 59.998 69.7813 59.998 70.112C59.998 70.7733 60.1847 71.2693 60.558 71.6C60.942 71.9307 61.406 72.096 61.95 72.096C62.27 72.096 62.5473 72.0587 62.782 71.984C63.0167 71.9093 63.2247 71.8293 63.406 71.744C63.6193 71.8933 63.7793 72.0587 63.886 72.24C63.9927 72.4107 64.046 72.6187 64.046 72.864C64.046 73.3013 63.838 73.6427 63.422 73.888C63.006 74.1227 62.43 74.24 61.694 74.24C61.022 74.24 60.414 74.144 59.87 73.952C59.326 73.7493 58.8567 73.472 58.462 73.12C58.078 72.7573 57.7793 72.3253 57.566 71.824C57.3527 71.3227 57.246 70.768 57.246 70.16C57.246 69.456 57.358 68.8427 57.582 68.32C57.8167 67.7867 58.1313 67.3493 58.526 67.008C58.9207 66.6667 59.374 66.4107 59.886 66.24C60.4087 66.0693 60.958 65.984 61.534 65.984C62.302 65.984 62.894 66.1227 63.31 66.4C63.726 66.6773 63.934 67.0347 63.934 67.472C63.934 67.6747 63.886 67.8667 63.79 68.048C63.694 68.2187 63.582 68.368 63.454 68.496C63.2727 68.4107 63.054 68.3307 62.798 68.256C62.542 68.1707 62.2647 68.128 61.966 68.128Z" fill="#44923B"/>
<path d="M69.2878 74.256C68.6584 74.256 68.0717 74.1707 67.5277 74C66.9944 73.8187 66.5251 73.552 66.1198 73.2C65.7251 72.848 65.4104 72.4053 65.1758 71.872C64.9518 71.3387 64.8398 70.7147 64.8398 70C64.8398 69.296 64.9518 68.6933 65.1758 68.192C65.4104 67.68 65.7144 67.264 66.0878 66.944C66.4611 66.6133 66.8878 66.3733 67.3678 66.224C67.8478 66.064 68.3384 65.984 68.8398 65.984C69.4051 65.984 69.9171 66.0693 70.3757 66.24C70.8451 66.4107 71.2451 66.6453 71.5758 66.944C71.9171 67.2427 72.1784 67.6 72.3597 68.016C72.5517 68.432 72.6478 68.8853 72.6478 69.376C72.6478 69.7387 72.5464 70.016 72.3438 70.208C72.1411 70.4 71.8584 70.5227 71.4958 70.576L67.5437 71.168C67.6611 71.52 67.9011 71.7867 68.2637 71.968C68.6264 72.1387 69.0424 72.224 69.5117 72.224C69.9491 72.224 70.3598 72.1707 70.7438 72.064C71.1384 71.9467 71.4584 71.8133 71.7038 71.664C71.8744 71.7707 72.0184 71.92 72.1357 72.112C72.2531 72.304 72.3118 72.5067 72.3118 72.72C72.3118 73.2 72.0877 73.5573 71.6397 73.792C71.2984 73.9733 70.9144 74.096 70.4877 74.16C70.0611 74.224 69.6611 74.256 69.2878 74.256ZM68.8398 67.968C68.5838 67.968 68.3597 68.0107 68.1677 68.096C67.9864 68.1813 67.8371 68.2933 67.7197 68.432C67.6024 68.56 67.5118 68.7093 67.4478 68.88C67.3944 69.04 67.3624 69.2053 67.3518 69.376L70.0878 68.928C70.0558 68.7147 69.9384 68.5013 69.7357 68.288C69.5331 68.0747 69.2344 67.968 68.8398 67.968Z" fill="#44923B"/>
</svg>
